C:\GBW_MyPrograms\KinderuniversiteitApp\Resultaten\Ellis_v10102025\Aarde\Aarde_v5.mot
version=1
nRows=9
nColumns=29
inDegrees=yes
endheader
                time	         pelvis_tilt	           pelvis_tx	           pelvis_ty	       hip_flexion_l	       hip_flexion_r	        knee_angle_l	        knee_angle_r	       ankle_angle_l	       ankle_angle_r	    lumbar_extension	hamstrings_r/activation	bifemsh_r/activation	glut_max_r/activation	iliopsoas_r/activation	rect_fem_r/activation	  vasti_r/activation	gastroc_r/activation	 soleus_r/activation	tib_ant_r/activation	hamstrings_l/activation	bifemsh_l/activation	glut_max_l/activation	iliopsoas_l/activation	rect_fem_l/activation	  vasti_l/activation	gastroc_l/activation	 soleus_l/activation	tib_ant_l/activation	
          0.94259513	         -8.10589630	          1.23862832	          0.89224572	         -9.37793524	         30.99533306	         -9.25528847	         -8.29141907	          5.86830879	          9.26572041	          1.72680007	          0.26838207	          0.05000460	          0.05688221	          0.05000147	          0.07745939	          0.06695684	          0.05000436	          0.05325198	          0.22337723	          0.05000168	          0.16362651	          0.05000141	          0.64975146	          0.05000169	          0.05000039	          0.18590213	          0.31965384	          0.05000023	
          0.95202108	         -8.12098057	          1.25388391	          0.89176384	         -8.80731868	         30.15869549	        -12.00042853	         -7.87285735	          5.15048920	          9.09895892	          2.06506003	          0.24358809	          0.05000311	          0.06096763	          0.05000212	          0.06694299	          0.08293347	          0.05000113	          0.05000064	          0.24193674	          0.05000047	          0.14141109	          0.05000090	          0.56724106	          0.05000193	          0.05000023	          0.16066224	          0.27625457	          0.05000014	
          0.96144703	         -8.13225199	          1.26929763	          0.89122253	         -8.03430183	         29.29691458	        -15.09838756	         -7.96672463	          4.21616779	          8.83665084	          2.42093420	          0.21446907	          0.05921608	          0.10798608	          0.05000051	          0.05785432	          0.07564221	          0.06330336	          0.05786278	          0.23049067	          0.05382443	          0.12221186	          0.05000059	          0.49022694	          0.05000055	          0.05000019	          0.13884917	          0.23874755	          0.05000010	
          0.97087298	         -8.14226831	          1.28466393	          0.89073092	         -7.04047404	         28.42540295	        -18.51940055	         -8.19859508	          2.93023326	          8.54030925	          2.77127388	          0.18535081	          0.06693107	          0.15360464	          0.05000047	          0.05000067	          0.11274354	          0.05470892	          0.05000690	          0.28602336	          0.05000109	          0.10561933	          0.06135489	          0.42366898	          0.05000074	          0.05000026	          0.11999766	          0.20633285	          0.05000034	
          0.98029893	         -8.15569552	          1.29967872	          0.89051066	         -5.80810686	         27.62286062	        -22.21540271	         -8.47836441	          1.24303660	          8.14655522	          3.08266939	          0.16018728	          0.05784538	          0.21096535	          0.05000028	          0.05000058	          0.19126460	          0.05000089	          0.05000081	          0.30699790	          0.05000205	          0.09127963	          0.05302525	          0.36614756	          0.06676379	          0.05000060	          0.10370562	          0.17831908	          0.25403407	
          0.98972488	         -8.17515238	          1.31410634	          0.89062923	         -4.38568678	         26.91950287	        -26.04543609	         -8.85428820	         -0.22231902	          7.80154428	          3.32829684	          0.13843897	          0.05000264	          0.22628595	          0.05000028	          0.05000090	          0.24103930	          0.05000059	          0.05000048	          0.33144167	          0.05000119	          0.07888718	          0.05000228	          0.31643582	          0.16565059	          0.05000022	          0.08962560	          0.15410874	          0.22848695	
          0.99915083	         -8.20221670	          1.32791406	          0.89114947	         -2.89045702	         26.28296866	        -29.67023300	         -9.26939719	         -0.56096173	          7.54474336	          3.50638733	          0.12462756	          0.05000648	          0.22022551	          0.05000049	          0.05000111	          0.26563538	          0.05000121	          0.05000139	          0.33231247	          0.05000231	          0.08367063	          0.05000020	          0.27347345	          0.23510255	          0.05000010	          0.07745744	          0.13318545	          0.29978409	
          1.00857679	         -8.23535322	          1.34121068	          0.89215363	         -1.39617520	         25.65997396	        -32.87792956	         -9.64842878	         -0.46212963	          7.40434992	          3.62974381	          0.11448671	          0.05000820	          0.21387856	          0.05000048	          0.05000105	          0.27033911	          0.05000160	          0.05000197	          0.32869795	          0.05326259	          0.12976851	          0.05000026	          0.23634412	          0.30643212	          0.05000009	          0.06695532	          0.11510291	          0.29963926	
          1.01800274	         -8.27327272	          1.35411602	          0.89360467	          0.05874910	         25.00436108	        -35.58535709	         -9.92218549	         -0.16854925	          7.35855222	          3.71244700	          0.10934744	          0.05001178	          0.19998973	          0.05000051	          0.05000104	          0.26120458	          0.05000247	          0.05000364	          0.31832738	          0.06859768	          0.17555086	          0.05000023	          0.20425598	          0.35809888	          0.05000010	          0.07111188	          0.09947544	          0.29299180	
